<mxfile host="app.diagrams.net" modified="2024-05-11T07:11:26.127Z" agent="Mozilla/5.0 (Windows NT 10.0; Win64; x64) AppleWebKit/537.36 (KHTML, like Gecko) Chrome/124.0.0.0 Safari/537.36" etag="Bh3Iu8pGTcftwUePgb3i" version="24.4.0" type="device">
  <diagram name="Page-1" id="7ynDQ071w07oT5E3r0nR">
    <mxGraphModel dx="1036" dy="593" grid="1" gridSize="10" guides="1" tooltips="1" connect="1" arrows="1" fold="1" page="1" pageScale="1" pageWidth="850" pageHeight="1100" math="0" shadow="0">
      <root>
        <mxCell id="0" />
        <mxCell id="1" parent="0" />
        <mxCell id="7ATF4BKXwCP3PbiUbOwa-8" style="edgeStyle=orthogonalEdgeStyle;rounded=0;orthogonalLoop=1;jettySize=auto;html=1;" edge="1" parent="1" source="7ATF4BKXwCP3PbiUbOwa-1" target="7ATF4BKXwCP3PbiUbOwa-2">
          <mxGeometry relative="1" as="geometry" />
        </mxCell>
        <mxCell id="7ATF4BKXwCP3PbiUbOwa-9" value="Push" style="edgeLabel;html=1;align=center;verticalAlign=middle;resizable=0;points=[];" vertex="1" connectable="0" parent="7ATF4BKXwCP3PbiUbOwa-8">
          <mxGeometry x="-0.1144" relative="1" as="geometry">
            <mxPoint as="offset" />
          </mxGeometry>
        </mxCell>
        <mxCell id="7ATF4BKXwCP3PbiUbOwa-1" value="Azure Cloud Shell" style="image;aspect=fixed;html=1;points=[];align=center;fontSize=12;image=img/lib/azure2/preview/Azure_Cloud_Shell.svg;" vertex="1" parent="1">
          <mxGeometry x="90" y="226.5" width="68" height="48" as="geometry" />
        </mxCell>
        <mxCell id="7ATF4BKXwCP3PbiUbOwa-11" style="edgeStyle=orthogonalEdgeStyle;rounded=0;orthogonalLoop=1;jettySize=auto;html=1;" edge="1" parent="1" source="7ATF4BKXwCP3PbiUbOwa-2" target="7ATF4BKXwCP3PbiUbOwa-6">
          <mxGeometry relative="1" as="geometry" />
        </mxCell>
        <mxCell id="7ATF4BKXwCP3PbiUbOwa-16" value="Trigger" style="edgeLabel;html=1;align=center;verticalAlign=middle;resizable=0;points=[];" vertex="1" connectable="0" parent="7ATF4BKXwCP3PbiUbOwa-11">
          <mxGeometry x="-0.2326" y="2" relative="1" as="geometry">
            <mxPoint as="offset" />
          </mxGeometry>
        </mxCell>
        <mxCell id="7ATF4BKXwCP3PbiUbOwa-13" style="edgeStyle=orthogonalEdgeStyle;rounded=0;orthogonalLoop=1;jettySize=auto;html=1;" edge="1" parent="1" source="7ATF4BKXwCP3PbiUbOwa-2">
          <mxGeometry relative="1" as="geometry">
            <mxPoint x="327.5" y="160" as="targetPoint" />
          </mxGeometry>
        </mxCell>
        <mxCell id="7ATF4BKXwCP3PbiUbOwa-14" value="Trigger" style="edgeLabel;html=1;align=center;verticalAlign=middle;resizable=0;points=[];" vertex="1" connectable="0" parent="7ATF4BKXwCP3PbiUbOwa-13">
          <mxGeometry x="-0.1305" relative="1" as="geometry">
            <mxPoint as="offset" />
          </mxGeometry>
        </mxCell>
        <mxCell id="7ATF4BKXwCP3PbiUbOwa-2" value="GitHub" style="dashed=0;outlineConnect=0;html=1;align=center;labelPosition=center;verticalLabelPosition=bottom;verticalAlign=top;shape=mxgraph.weblogos.github" vertex="1" parent="1">
          <mxGeometry x="290" y="213" width="75" height="75" as="geometry" />
        </mxCell>
        <mxCell id="7ATF4BKXwCP3PbiUbOwa-5" value="GitHub Actions" style="shape=image;verticalLabelPosition=bottom;labelBackgroundColor=default;verticalAlign=top;aspect=fixed;imageAspect=0;image=data:image/png,iVBORw0KGgoAAAANSUhEUgAAAIAAAAB+CAYAAADsphmiAAAAAXNSR0IArs4c6QAAAARnQU1BAACxjwv8YQUAAAAJcEhZcwAADsMAAA7DAcdvqGQAACX9SURBVHhe7Z0JeFTlucf/M5klM5lM9pWEEAghQQQEWUUogiDKKgTEBcWti1x7vXpbLSpVa1uXttcqrlhREHApIAqKgBQQZJEdQiABEiD7Nsns+z3vyckyc86ZzEwmIO38nicPOSdhMnO+9/u+d/8kbgaIQD+y2+3sv2GuDiQSCeRyOfuvPwgKgNFohF6vh9ls4e6EudpQqSIRHR2NqKgo7o4wHgLgdLpQV1fLDrxWq4VarYZSqfBbmiw2B0rrbDjXpMCRkhqcNqfjgg6oNwF6a8vvyKRArAroGQv0Qgmuz+uBPikq9IoyIDle0/JLYYKGhtNqtcFkMqG5uZkVhMTEJEREMA9egDYBoMGvqqpifjGC+Q8JkMlk7C/4g93hxNtbLuCD4mw0MYuGK8Adg+RLJnFjTLYETw6vRW7PJO4nYbqCw+FgJnQ9M7ZOpKamCgpBmwBUV1cz0gPmF1PYH/jD8Qt6vPejHDsuRKKZm+FdhVaI/vFGFOSbUTBUy65AYbpGVVU1O8lSUvhjywoA7fm1tXXIyOjh18yvbHJi2a4GrChKgt3J3ewGBjCC8MwkBYZmRIguYWE6h1aCS5fKkZSUyNMJWAGgpV+hUCI+Po67Lc73RY1YtDmOXeovBxHM1jAtswKvzqUlLIK7GyZQGhoaYbNZ2a2gIxKXy+UuLS1DWloaIiOV3G0+pFi8vBNYcUQGu8v3bOwdD4xMrMHgPslIiWaUPmcl1JEtSznpC/qIJNQaJSipMmLvWSOONCXDYmd/LMrgFAf+MsWO3ozCGCZwLBYrKisr0atXlodSL7Fare7y8greDzpitDrx2y+t2HhWzd3hE6+wYlS2HPf1q8BQRrP313Ig6puMWHXAhA3nYlDKWBAOF/cDL6LkLnw024IhWeLvI4wwpOrRRO/RI51Z7dv1KonFYnFXVFQiO7sXd8sTGvy5qyQorBExI5hxvrt3GR6dlIaEaP8dEEJY7C78UGLEY99Gi24xKpkTy2cYMDwnhrsTxl/Ony9Fenoao1i3r/Q+13Ja9mnmn6oV/rXrk/X47A47np+ThUSt//4CMSLlUozPj8a/HrDi4YENUAhs+WZHBP7razVOVxi5O2G6gk8BoD2flv0WQ7EdMtWm5Vqx4q5IDO0p5+6GjliNEk9NicfrU62IkfPtyxqTHHd8pkaVLuyp7CqiAkDaPil8Qjx2gwP/N0OOSEXoB78jk/KUWHePG8kqvoaos0iweKu40hrGPwQFgOx8MvW8tX2a+f97owO/GCmFVCoqOyElOykSH862ITPKzN1p57uzEizfa+KuwgSD4CiSk0dICZuSY/M5+KU1Zjy9thrDXgf6vQos+MSNvSV6WG0O7jeCI69HFF6ZESmoEyw7rIbV3rXX/0+GN5Lk3iUPnzek8L18m/jgr9tfgxkfK/BxcQrqmElpcwK7SiW4Z1007v+cWbKbDdxvBseITAn+PF4HbzWzvBlYvJm7CBMwvNEk3763e5eU+ycnRDJ7vrBOcJEZ8ed2x6PZxp+iZNPvuSjD6GUavPODA0aLjftJ4EwdHIMRGfzZvvakDOfqOvEkhRHEQwBszFJKgR1vyM73pe3//Tsdmmy+YwhmZnz+vFOG6R84UdbggCvQkCGDPEKC349pZP7lbnDQK207HaJo1H8YHgLwztaLvKgeefgenZzGXQmzqTyd+65zzjWrMPkDGZ5aVw+zOfBB65eVhIJ+/O3kwyNhiyAY2gSAkjkonu8NuXcTNL7NPZPAqj4rR4dEEY+tlVnFPy1JxK0fyrCpyAV7gErczGv576fcIMfuwhruKoy/tAkAZfI0WfjLMvn2g/HwzcvT4/tfODCqh5k1H4UobYrAI19I8avPTWgy+x9Xpu0oRiAmtPFiOJEkUNqGhtK4XG7PgaaoHgV2gkUpl+HDeXK8PcOOeB/xm60XtJi4TIJ3t1ezsevOIEvkV/0vclftFJWbwgmsAdImAJTD5w2FdLvq35czQjAhV47vH7JiwTVNUIvsJnUmKf60PwX3fuLC4XJ3pwN5+/BknjJYZZTBKRJJDCNMmwBQAqc3FM8PFapIJZ6bGoOv7jYhQe1iTUsh9lxSoGCVBP887DvYo1ErGR3DU0garEowr8xdhfGHNgEo03HfdICSOUJNdrIaux6y49mxJqhEVgOaxU9u02BzkbhtL5O4EBfhaQ1YGTWioraJuwrjD20C0CDgUqdMnu6AVoP7Rqrx9b12jMs0Cbp4SQg+2s/3/7ciZSZ6dBTf9Dtb3sh9F8Yf2gSgNW+/I61pXN1FVoIcy+9U47WJNRDK+TxSp+W+40OKoErJX0LCK0BgCDz2y8/EAfH4+YAadlZ3xNyJQSCooIZVgIBoEwAhW50SOLsTl8uFwmrg3k9dePNYMq+gJD1KXAcgK0EoyhgXHc4XDIS2YadyLW8oe7e7oMF/cVM9Zn5EwSLhrebGnuKBI4olmARSidMSu0Fz/TemTQCoVs8bSt0ONTTwXx6swZT3XfjHySTYRez2dGb7/+Uo8b/vZFYLnZf3kLaQ3MxE7iqMP7QJABVqelNSGdrEywuNLvzPejMe3ZqMMw3C0UPaikb2sOKfd9rRUyyYwOBwSVFv9ywm1TJGgVjIOowwbQJAVbre7D0XGgGg/fq9bZdw23IJvigWL1cmc/C1mxuwYr4cqTG+A1CHiyt4lkuSTMd8oLArMBDaBCAnVcXzzlHFDhVtdIU9pS7M+8iCP/6YAYNNeEmngb9voAk7H7Tg1sHxkPlRB/j2If5en50aHa4hDJC2p5WlNrAl2h0hHYsqdoKh3iTBn79uwL2fSXGgSrici/bsPrE2rCywY8kUNVJi+ckoQlysN+P7Cr4AjOsVWFg5TAcBoOYMY3rxZyiVa1HFTqD8Zmca3jkWL1rmRXv94lF1+HKhFMOyfC/33nxXwg8U0etNzQsv/4HisV4+OaKW5w+gWr0fzvreBgYJJAQZHQL+XQZ6/Vv7GPHVPVbcf2MiVAEqbWaLFe8f4C46MDXHAG1UuHA0UDyGmzpzUHOGjtAMfmxzNHQG8fSth/tX8Lx4QqRqnHj1Z1VYOicK/VIDT+EiZfKNfQpcNHpbB27MG+q7F04YYbzmOzAnnx+AoRqBt3aJrwITB6ViaLr4/kuz/qFrqrFpoRszhnnWpwdClc6GFYe5iw5kxEgwJJ2/LYTpHJ4AzB2qZTtzeLP8ZDy+LRJeBRTMCP9jlh33X2dFVAenHlkVY9INWDnXid9NTUGcOngbvU5vw8J1Ssb081xqIhn14a3bDOx7CBM4guXh+8vsuPMTGZxeKWJUqEm1elSuJQY1m9p9vIzZq+0Ylp+B+Jiu++YpJvHkJgfWnuJvG7f0NuCtgnB3MX/wuzx8aGYE25bFmya7EnesjkBRufh2QHb42MHZmDwyN3SDv9GOdUX8wac8wyUThZXNMP4hKAARUileKUhh27J4U2OW4+F1Uuzj52SGHFr2aeavOx3JKIDcTQ7qHfTyBD1S48Kaf1cQ3TipWxj15KG2LN5cNKqw4BNg3UEd7BSVCTGk7Vc2WnD3pwp22fcefLI4Hsg9jwn9w5G/ruJTc6KGTNSTRy3jCwEVfz6+LRYL1jhx+kItd7frkJ3/6k5g0nIFTtdxN724a7ALT83szV2F6Qqd9ggi9pc0sW1ZqDOHEHJGjObmGzBjgJwt2gimdwC5d8nDR04evp3fAs18Gvxnb3IzK1R47w8UISXQLwEgqCcPtWWhzhy+oIodKtq4fVgym7QZIXExAydhhKLl/9HyTskctHM43FIcOl2Otw9rsVvAt98R2vNp2Q/P/ODpkgAQVTorFm9VsJ05OoOKNpLUbsRGGBhBiIRKKWNz+CiNizJ5KJmD4vlCyajekLZPCl+ge36zwYJdRfU4ZeqBS03MNfe3YhgrNjMGyNfUYHTfaMRofjqKJFk9R4orcbghAef0KtQayM/Z4kyjJJlcrQHD0izIyUgQzon0QZcFoBVqy0KdOag5Q3dCTp6fZRiw5OYIv7X9irpm7CxTYP0xKw7UxnTauJoe7IiUJtw+SIUxzCNIjuneTGghzFY7DlTI8dXhBmy9FI9G8Wz4NrLjgalZdZg0KAH5iW6/wuAhEwCCZvLT3wL/LJTxtPRQkMHMUPLwDcj0z8lD7+Ht76rwysHULr2fp8dZcP+ISF5uRHdBs33R1rQuTaZxzK746iQTEjvxu4RUAFqhzhzUnOGjI0pcMgQW1vWGZiNF9SiwQ759f927pKQu2RGNojr/ft8XNPD5cSa8MNGJIdndZ2bWNtuwZAuw7byCtai6SnykHfcMkeKRkW62HlOIbhGAjlB9/sYLSThVbkSRTgOLj/wM0gkph4/SuCiTZ2wvB6b2czL7sf/eQ0owXXXQgme+8///+AvJ3p8mGDFnSOijjEU1Lvz6cz3O6EPf7XR2nglPTRDu6dDtAtAKafnUXvZgOXeDY2KPOkzPbkB6kpbN3qUETsrhCzaN60/bXXjvgLTTJX9wGjBEug+9kiLZ91Zh0WBPUw5OVHO/IAKtBktGVODecf53QOmMSp0Ft34UySjB3A0R0pjFZ1RKIwaqy1gLSmd2odB5LXaUyjotmBmWYsCn9/G3zssmAETBx8CPl7gLjhvS9Fi5IDTL6gc/uvHSDsaqEHgYNHCT+jgxf0gEBiaYEKcVXiEa9BYcq1FgzUEzNp8XnumkCrx8c2hWgtO1wF1rWo7QEaJPAnD/dRaMSjcjKyVG0J9CLfGKKu3YetqMVUXxgjWdxIg0I5bNVUIT2b4dXHEBoIm+Y6ERPRK79jB3nTFgwTph5TBba8HvJ7oxtm9gpt22wmb8YVc0SnU05J7QdvDJHH2XdAKTxYZ7VtlwqJb/vjVyJ+5ihPXXo+yC9Y5iXGqwYMk2OXaWRgim3i0a2ozHJ7bXVwoJQHBrb5BQxe9r+/xL/BSD9v1ntgsL0IgMOzY+oAh48IkJ/bX4+gEJRiU3cHfaoYf79JYI1okVLC9slwkOPmXErZxjwZM/Q0CDT2TER+Ld2VI8MbSKu+PJm4e02HqinrsS5rIKALG1xI3qhuCbRv5piwVlArN0ch8b3pvlgkoR/Eei1fKNgmhGCPgl5kU6Nd7fG1yPw0v1Vmws4gsP9Uf4pMCMQT2DXxEjGP3g5zelYsmN/Kpo8oG8cVCg5KsDl10AGi0yPLBBA0NnmowAzWYnNpzmmzi0ozx/MxCtbl/agiWe0Z7/cXccesV5DhhN/hd3KlHTFLgQvLSlGXqvJppK5mO8dUsDBvcMjRfyvtExmD/QyfNfHK2KwK4ige4fHJddAIiTjPb9/DeBrwKb9p9HjdnTU0cu508L9CH14JEH8ukxeu7Kk13nA9sGSi7VYxNjGntzW187xvWP565Cw+LxbvSM5hfM/s/WWDhEKr2viAAQn52JxWOfN8HsZyNp+gCvF+ZwV+2Mz7IhO4heNnSW3ts/ODHhXRdGvck8vC/1MHRwXJBOMDmbn/m07lhgZxTsrNDy3NG01TzKKHzBcOCiE7M/MGLo68AdK6w4eal9IkUxL7xoON++JEvhdI3wc75iAkCsPxuDKR/IcLhUzw6IL0qqDKgQcJfekS88U31BytzrexgzcmcEzjVKUcW8xKrCaGw+7vkH5g3lL8/7qmPQZPDDWc+xt5j//mZl1yArKXDn1ZlqK365PgKHaqLYQd1XocSijSq2yWcrc4Zq0VPr+SxJAE9WCZgJDFdUAAhqTnXn52rMWyXB7kJhbZYoFvCa0cQfm9/5UXcdocF/YZsLS/fydYndxy9w37UwKJm/37PNrwUGVYyTTZ7LPJnCs4YFXsJ+qsqGeWsUPB9Co8EGnd5TIKf04TsHfigR3nIvqx8gL9bAuoh9kcoMaj9VBTKTYyDvkPRRWCfDvkueg3Z7z4v4y/xM7qqd8tpmNjCi9Ko6olWGZj4NvrfdTMrTy+PrMWdYAnenhWnLwfMY3sA8qmEZ3EUnvLa7RYFsRR3hwOb7rMjw8oXU6oyMPiNFbLTAqlPmwKIvZagTyMXNiWcU4wWM9dPBhPz6NPCr9dwFRz9GDXlr/BV2BK2cB2w5XoeVpxLZhJCu8szoBtx/Y/sMu8RMj4Xr1SipY7R55jkun23FtT1aPizN/P/73oW/7xHOJKLClo8K3FCTBtiBP64txnvFfbmrrhOjdOH7nzugUbUorU6XC3/dpmds9pYV7ufDXfjfscxKwbnHz9dZUbBaKeg9jFe5sWZWPfp6NcU4fL4Jt3/quWJqI5ktd/oVdgQRT9+agOXTdUjqmjOQJTPF08Z9cYeSHXyigVkV532ixI4Sak3vwh+YZf+tfcKDP7G3HSvmSXiDT/RQiafABwOVvkd1+DvrT7jx1uH2wVr2oxRPbGpZrU5U2HH7KuHBJzPy/Vk23uATGhlfwWwW0V0vuwDIIiQYkxeL9XdZcd91NsREBr8U0OzpCNm8HaEzCh7bJMOSb5348FCE4DnHE3vb8MptgEqoWSFDaypbKOm4JRytJg8jd8FA3tL1hYwQbHRj4Vq5YNAoQe3GJ3MtGJwp7PcIJFPoiimB6XFKLJmkwMFFLjwxXIdUjQtRcrdfRaat1DR6zs6BqXxNl7JrVh6VC245Q5hl/7XpEYgVa2DMUFob2qPpSGjNtvYZOjDVzXPeEOtPCe/5scyyv2qOCYMyxV3qzQJOtiiRj3jZdQBSoISg00qqjBHscne2QocLVTr2XivHGmPxQ62nQ2Vun2q8NKf9SPRLdSbMXK1iXqNzKZqcY8dfp0qhVgrP/FZmfQQc8WqYOiLVhMFar1i3CO+c8dQfomRORgm0oUdCi7JH/o2Xtxrx3lHxppit0LK/usCC63r6jqd8W8zoEmu5C4485tG9+VNQAsUEoDM2FAK//pK74KAkyZ0POxmFqX0Qa+t1uGedBqfr+WYeQbNtfC87/sIs+7Fi04KjsdmEIW/x7fU3JpTjtuv9a6NPTibyM7TC7IBYPd+JYZnt79nKrAjPfWPBp6ej2S1AiKQoN96facG1GZ27jl/arMPbRzz1o+k9K/DfI21XXgkMlt6R/OwNcgztOek5PZMSYvHRTD27pQgxJM2JpbOYZb+TwSeO1fMHn9aWG/M8TUVf5Ks8ZwFtRV/t8/Q3KBVy/HF6NG7PNQpuBxqlGytnm/wafLJ2vr3ADwDd0E/Y7XzVCEBeVhIb9PFm9Rm+FpycGIc1BSaeEMxiHvByxtSjM4r9YfUhvtY4PLkJWo3/Ie1R/fnnLX12IZvNXvbmhVvkeHCgZ1SPzLdVzODnpvlnNq097sQ5r4g26VX5Ip3/rxoBIPPp14P5h1rQKWclVXw7KStZgy/mNWFOfxtGpjTjoWFuvDBZ6pEh44udZ8z49ixfP5g5UFjzFmNcppk3q8k6WXqAv7oolQo8Pl6FJ24ERqc1Y2quFRvm6XBtpn+Db7YzJuVe/hJCJnffZOHPfdUIADFjWDLPf2BiHuasNWo0GfjaOq0Er0xTYPV9WvzuJgmi1J0voYTZ5sKSrRIP84yggRybFVg4ODddg1tyuYsOfHpChsLz/OJHEoJHRgMfL9Di9VlKZKX6jud3ZOnWapxt5Avtc0NPizbQvKoEQKNwY2oe356j9kW/3aII+PQxIQxmKxZ+5kKpnr/M/2ZoFdITO9fWvXniBiuivRYOckXfuSERhVV8p00wrPnRhDeP89vvDEgwY/LIftwVn6tKAMjB8fhoC7Jj+A9t8xkp/utLqeBK4C+U7PHERgkv5kDkJbrYzJtgyE5U4LYcvkeHei89sFaOgxf8qI8TwcFolR8fMOPZ7fxj/snieOQG31veVSUABC3jSyYJa/Cbi6UYs0xYJ+iM89V63LZCgc1nhRNLnhun5+3l/kKC+6epKvQTCAKSiTj/UyWW7/DPr9ARKqV/5AsJnv5OJdh0+/6BOtyS79vaueoEgBib7cYzoxvZbF1vaDuYsUqNX31uwa5jF33mGVA/o+0n6/HwZzZMXhEt6HmjQX/hJhOG53S9iOOvt5h4WwFBLurn9vbAtPctWL7XzA6sL0oZYX1xqx0TlklZp48Qg9PcWDTOd+SVuGocQd5QgOf5zSZ8fEIjmBLdCjmLxiRV45oekUiOi2Lb31yqacKJiwbsbswE8yxFYXsYD3Hitz+j8vbQzJUj5+rx4FexqDfzlbVWKM1tTLoe1yUZ0TMlDtooJZtIe668HnvrEnC83vfAUlndqnl2KBWeq9kVrwsIpQAQVOWzfI8OL+wOLCnEX56d4MbC64Nc931QcrEW879IElxxusqonsA/5rgEfR1XvC4g1FCkbuENsVhewChaAophsGTFuvHhTH23DD6Rk5mE9fe4ML1Pc0DBL1+QY/OJkc1YNlt48MW4qgWAIAWLyqO/XOBglmtXl/IMklU2PDjYhO8ecmNsv9CUsInRI0aK1+Zo8bdbHchNcAStYEbK3BiZ4cBncw14ZJwWakVgQ3rVC0ArZB08O1GCbQ8xStsNNYJuYzFIT3hx2BlseSgCiyerQ7bf+8P0ATJ8ca8UX8zTY1iq/9YLJQzNz63F9gcdWDk/AvkZnSt8QlzVOoAvHIyGX1RWi3OWFJTVW1GrM7UlT1IBSY/kGGTGydA3ugk5qZqfTNMpihGcaoxGWaML5fVG1DeZ2JCxWqVAUmwUMhPV6B3rQH6iHdEBdkf/t1MCwwTGv50SGKbrhAXgP5ywAPyH8x8hADq9EUeLK7F57xn262BROfSm4AMwlwOKbJZV1GH/sRJ8f6gIR4pKUVMf+oOx/y2VwDMVBuy4qGLTxYosGR45ea2Q3U19eK7RNmBk32iMS29Gnwz/U71Cjclsxel6KYoqjKi2xaDeLBHMD6R8lmS1HRkaO/oybzcnRemRE+mLy2oF3L3Kjt0XPSNR794O3By6IhsPKDZQWm/Hq7uV+OaMZ+69P5BH7taetfjtzVpkJLQ/oO6Gsnj2nzNgS1l0p00thYhTOjA1x4ScNA1bWuaLy2oFpEr5hZ5lNcF3BumMxZusmPmxkq2LC3TwCXr4X5Ul4daPZHjqaxfb06e7OXS2AW/scWNzaXCDTzRaZVh5Uotl+12orBVvBCFGtwlAXhY/+L3vfOj33cJyE255H1hzUuVX3+HOoE4ea45J2YZO1NWrOzCazPiq0InPS+LRaOn6EJDsXGyW4e0jWvx4MbCsqG4TgNxUfkrVzuoEdq8LFRRapQ7mYucKELQqUjFGbKQLCWoqq2op0KQqXV8rJjV0opZu1NcvlFhsdqw8KsWei773bZnUDWWEkw3y0EFcKpkLCgnznr1Od+2I3SXF2kIZtpzxXwi6TQcgN+aYZXyH/OKxVjw4qut7LIVU71gXLxpXpwZMBT3PY+qInkhX2xAbFQGVQs4qf0bqVm60o9KswroDdVh3Plm0qymdZrt6vgt5yV2fKzTzVx6Rokwv/vkz1EaM7S1DUrSUFVKVUsG6qal4hLYls0uJM5VG7K2KQrNNON2LBHtslgs353q+58uqBBLzlhuwv9ozSJGX6MCXC2WC2Tz+Ut7kwqwVUtQKxNPpdecOcOCRYSa/EzjLak34+w9ybCyWCzaezI1uwsd3q5Co7VofIlr2hWY+BQLTVCZM6O1EfoZ/UUjKdPq+xIJ9jCAILVJSZqUo6GfAoKz217vsruAXJ9NhEdwFR1GdDBsO8XvxBcLLWwyCg0/nAHxRUIcXp8gCyt6ldi1/mS7HO1Ma2JXDG+rp++wW7iJISOETG/zr0yxYNFbt9+ATZPqN6xeFR0c52TC2Ny63BGvPRKOxybfi3a0CQM2brkniJ2r8bkc8CquDU3s3nHDgq3P8waXOIpQG1b+XQOaln1DXrlVzzGwqmDfU1ZtauwcDmXrbLvGzlmg7mtLXgRkDgl9ZIpk3+/AIKfLj+FnHlCj6dbFvXaNbBYCaGD40vOWDdoSW2cUbTajXB5bFQ6eYL93bYrJ1hCK5S6fZ0D9VYPoGCPXt+3SukW3f2hFq6U59/elwh0AhO7/R66gdduanWjC6l7TL+QdqpQyzrpUhUckXgjM6FWobxA8j6FYBIKZdI8ekHnx76khtFO7+xA1rAEfTF1cYUdzAV3wWDyvHkMyu7c8doc6d1LvXGzrUgU72CASyesjJ4w3t+bMGRoYs+UTD7F0/H61iPYUdIcH94qz4dtjtAkA8OTmGrW33pqhegds/tOFUuX9dt174l2c3DWJAogX3jfOvVDsQqHEzde/25qsA9Rdy7wo5eUjhCzVquRuD0vgTqrQRqBHpT39ZBKBXogLLp+kYe5yvYhfWR+LOz6Oxel8jDGZx7xtlyhyo4hdUzr4mOF2iM6jrFrVu92ZreTx7sJO/0Glr3pCpF4jC5y+UHzm+p5U32UgA6yzCK+RlEQBiZG4sfjNM2LVGZsziHXEY/Y4CG/YLV8gU6fgPjPLn5w3uvo9Affu9oZYzR4r55yqLUWXjF5SQnd9daDUq9JTx39/Jc8I9GC+bABALxqbhjxOtgt4sWtrJlfvr7T0waqkLD35iwd++Z/avA5XYc7wMe87wQ6FUPKGK5DtVyEYuuVCFc5dq2CCRGPSzsxeqce6i8NEhdGgDRQy9OdwgbmlYGCWxvLoBFyrrcOpcORvV64hM6mKdPN3Jtb3b2+a0UusSbhDRrY4gMbafbMBT22NQbfRtonTG40OrsWii54e12e348EcXzje3CMa1CQYUDFbxkj4tjHa0al8TzprjWeHrm+DG/EH85hGP/1OHtSWeJdpzBwIvTeEuOKgzx56zJvbkEV+VSuTefWyUDdoAEzoDobjGig8Oe04MDbMDzO/1E8kJHH9NPL5aYMeoLO5GkGQm82vnvzlY0Tb4BJVR/SAQ1TlaJUWJqWXwieJ6CY6W8c2lgepS7rt2hCp6Tpc3YdM534NPyBitX60MncUihNLJV6oNIurVFREAIlEbieWznVg63YkBScGFXqlmzptmJV+qjHJ+Wbde4E9erOSfriHUJ5C/gTEPWBLLs1AEYRS17k5Bl7BeBv+4YgJAKBgt7tb8CHx5vwJvTarC8AwnElX8Qw/EqKznS3p+dK1HlI9iA73U/Dh5erTL4++Q73xAb34jHZ2ZP6pCcYx4abPgfW9I76DATndiF0glol4BQlxRAejILdelYvV8KbY8KMHGu81YlHMUY7KBZA07aQQpreDb5ENzkjA2uZodDPqa2qsBeRn8rYKie9OZn5HJRF+TMxuRm8avril0DuC+a4cqibzpnabF7FxDp0JAJenGbk42cSr5Sio1mxLiiiiBwbDmKPDUN9wFx7XxBmx4KLiSKH+gI9qGvCGDyWu8/jDeiLuGC9ee0exu9RPIGWn48y6FR4SRTlP/xXAXesR2nym4s8SGb7waXWRrjJiYXvvTUAKDgcqhvDneoGGbJXQXdD6f9+ATw9OEvWoE9fzTqCPZL6rPT1F5LvdOtxTFld1QF96BE+X895cRdQU9gaGAauGEMnhWHuMrgqGCDmf0phdjTtPR7f6SIXCGz97KKJ+dS7pCaXkNKqyezifaQnMzhd/zVSMAVAg5N4dvzm06Lem0pUowXGqwsidzejMtq455oH5qqQw5CXwlstkuY5M5Qo3T5caOqkRe7EHK2C1JApFC4qoRAOLRm2Khknl+ukqjHP+9Scl2ywoV5Dxcsk0meCzrpIGB1Q70TYlkU7e9oUwefw/M8peSKiNK6vlDekOWC1qRQ7mvKgFI0kRgUCp/6aRGSWsOhW5GvfevKvY4Vm9uZPTk/KTABI0yd6blmHiWOcU/3tlLreNDsxVcqDViTaGG1xafmlKN7y3+nq8qAaBjVJ4ZZxbsff/8v1RYdaDrdQfL9zThzwdSeR69OKWd7fIVzEnnfVI1yNDyZzudgfj5ERsM1Du2C9Dgf3ZCCquALA1M0EMpF7c4rioBIPpnROOXQ/kuW8oreXq7Bq9+XQWLPfDtwGhx4HdfO/HcLuF2cPdeH8EeRBUMZA7OzNFDLuU7aE41qvDuXgdrbVA8IRBoz6cM4Q+ORqHexo8tULPsKdf4bpUibVVoAv3jV5KFozRsNyxv6CMsPZaKqR+48M9jDr8/0+cHm3HbB26sOS7sop2dZ8KvRvAHLxDSkuIwLU/4NeqYwXt1F7DhlBvNfp5JSNr+ysNurDgeJTjz5VI35va3tWUctT4LbwVW4nK53KWlZUhLS0OkQGj1pwrlB961RoJDFeIaeW9GX5uUqcPg7FgkSaqhVcnYB2FwyNk4/dEyPb4+q8aFZnHf/LAUA96ao0SCpuv5hgQVbewsk4keDEFeSYrnU0g3hlEeKbBDvn07M9udygRU6uysnU+mnre230qUzI7Z/YweHlALYylVVlaiV68sDyGQMA/EXVVVBYVCifj47um3111YbTbcsUaOI5XiQtAVRqQxitWCLrQdE2HLGRd2lEqYAQz9+6aZPz+/ief+bmhohM1mRWqqZ2CMXR+io6PR3NwMhyO0Zkl3Q562DwuceHiQTjTYEQwUAFzE6BnL5nbPikgVO1S0EUA7P7+gPf+X11t5g0/jSuNL4+wNuwLQN9XV1ewemprKzya5GvjmlB1Ldztwor5riRZkZi4aosPEawOz94OhQcdsQSUyFOtUbPZusJCpN4jR9m9hFD6hLOOqqmrWG5iSwh/bNgGgKBVtBWS3JiYmQCbrvmBFd0IdQJYczEWNwQ23n3FxmvFxKjf+dnMTbszjRw67G8rbp9Rtyt4V29e9oQElD9/onk7c1IdZDQVMPZr5dXX1rNuZln4hE7ZNAAgSgrq6WpjNFmi1WqjVatAJFoG4Pn8K0GnaxTUOnKoBdp9uwGlzOi7pGFOPM7dpxlBIN19Ti1E5GvRPkSAvRX7FewVS6nadRYmT5yrZHD6dXdWWyUNCSoWqMTIjMtRm1refqDAhJtpTR6HhtFptMJlM7LKvUkUyEzpJ1H/hIQCtGI1G6PV6VhDCXJ3QwNOeHxXlW4kVFIBW6Ed2u73Nhgzz04dWa7mcyuD9W7V9CkCYf3eA/wdZfjJ/l/lmCQAAAABJRU5ErkJggg==;" vertex="1" parent="1">
          <mxGeometry x="293.89" y="60" width="71.11" height="70" as="geometry" />
        </mxCell>
        <mxCell id="7ATF4BKXwCP3PbiUbOwa-12" style="edgeStyle=orthogonalEdgeStyle;rounded=0;orthogonalLoop=1;jettySize=auto;html=1;" edge="1" parent="1" source="7ATF4BKXwCP3PbiUbOwa-6" target="7ATF4BKXwCP3PbiUbOwa-7">
          <mxGeometry relative="1" as="geometry" />
        </mxCell>
        <mxCell id="7ATF4BKXwCP3PbiUbOwa-17" value="Deploy" style="edgeLabel;html=1;align=center;verticalAlign=middle;resizable=0;points=[];" vertex="1" connectable="0" parent="7ATF4BKXwCP3PbiUbOwa-12">
          <mxGeometry x="-0.051" relative="1" as="geometry">
            <mxPoint as="offset" />
          </mxGeometry>
        </mxCell>
        <mxCell id="7ATF4BKXwCP3PbiUbOwa-6" value="Azure Pipelines" style="image;sketch=0;aspect=fixed;html=1;points=[];align=center;fontSize=12;image=img/lib/mscae/Azure_Pipelines.svg;" vertex="1" parent="1">
          <mxGeometry x="460" y="215.5" width="70" height="70" as="geometry" />
        </mxCell>
        <mxCell id="7ATF4BKXwCP3PbiUbOwa-7" value="Azure App Service" style="image;aspect=fixed;html=1;points=[];align=center;fontSize=12;image=img/lib/azure2/containers/App_Services.svg;" vertex="1" parent="1">
          <mxGeometry x="630" y="218.5" width="64" height="64" as="geometry" />
        </mxCell>
        <mxCell id="7ATF4BKXwCP3PbiUbOwa-15" value="Execute Lint to test the code" style="text;html=1;align=center;verticalAlign=middle;resizable=0;points=[];autosize=1;strokeColor=none;fillColor=none;" vertex="1" parent="1">
          <mxGeometry x="360" y="88" width="170" height="30" as="geometry" />
        </mxCell>
      </root>
    </mxGraphModel>
  </diagram>
</mxfile>
